# xmcd CD database file
#
# Track frame offsets:
#	150
#	19919
#	40751
#	67828
#	94769
#	119509
#	138001
#	163464
#	188439
#	209201
#	226191
#	246292
#
# Disc length: 3512 seconds
#
# Revision: 0
# Processed by: cddbd v1.5.1PL2 Copyright (c) Steve Scherf et al.
# Submitted via: Feurio! 1.67 - http://www.feurio.com
#
DISCID=a30db60c
DTITLE=The King Bees - Stingin' and Swingin'
DYEAR=1900
DGENRE=
TTITLE0=Where'd You Get To?
TTITLE1=No Dice
TTITLE2=Send Me To The Jailhouse
TTITLE3=Coupe De Ville
TTITLE4=Back Door Lovin'
TTITLE5=Party Shoppe
TTITLE6=Make It Up To Me
TTITLE7=Things Ain't Right
TTITLE8=Stumblin' From the Hide Away
TTITLE9=I.B. Lover, MD
TTITLE10=Dimples
TTITLE11=Low Down Dog
EXTD=
EXTT0=
EXTT1=
EXTT2=
EXTT3=
EXTT4=
EXTT5=
EXTT6=
EXTT7=
EXTT8=
EXTT9=
EXTT10=
EXTT11=
PLAYORDER=
